<?xml version="1.0" encoding="UTF-8" standalone="no"?>
<!-- Created with Inkscape (http://www.inkscape.org/) -->

<svg
   width="250mm"
   height="250mm"
   viewBox="0 0 250 250"
   version="1.1"
   id="svg336"
   inkscape:version="1.2.2 (b0a8486541, 2022-12-01)"
   sodipodi:docname="mpbLogo.svg"
   inkscape:export-filename="mpbLogo.png"
   inkscape:export-xdpi="150"
   inkscape:export-ydpi="150"
   xmlns:inkscape="http://www.inkscape.org/namespaces/inkscape"
   xmlns:sodipodi="http://sodipodi.sourceforge.net/DTD/sodipodi-0.dtd"
   xmlns="http://www.w3.org/2000/svg"
   xmlns:svg="http://www.w3.org/2000/svg">
  <sodipodi:namedview
     id="namedview338"
     pagecolor="#ffffff"
     bordercolor="#666666"
     borderopacity="1.0"
     inkscape:showpageshadow="2"
     inkscape:pageopacity="1"
     inkscape:pagecheckerboard="0"
     inkscape:deskcolor="#d1d1d1"
     inkscape:document-units="mm"
     showgrid="false"
     inkscape:zoom="0.5946522"
     inkscape:cx="456.5694"
     inkscape:cy="501.13327"
     inkscape:window-width="1920"
     inkscape:window-height="1141"
     inkscape:window-x="0"
     inkscape:window-y="0"
     inkscape:window-maximized="1"
     inkscape:current-layer="layer1"
     showguides="true">
    <sodipodi:guide
       position="98.228808,125.65784"
       orientation="0,-1"
       id="guide1916"
       inkscape:locked="false" />
  </sodipodi:namedview>
  <defs
     id="defs333" />
  <g
     inkscape:label="Ebene 1"
     inkscape:groupmode="layer"
     id="layer1"
     transform="translate(73.876425,-139.52922)">
    <path
       style="fill:#141c21;stroke:none;stroke-width:0.264583"
       d="m 12.961395,228.34181 c -26.45463,3.09801 -20.1083302,36.98822 -20.1083302,55.70405 0,9.46309 -1.06469,19.18414 5.44168,26.9875 6.75667,8.10339 14.9113902,8.73125 24.7208202,8.73125 h 44.97916 c 7.47977,0 15.96311,1.10305 23.28333,-0.5469 7.26493,-1.63724 13.197945,-6.97521 16.096985,-13.7406 3.40889,-7.95549 2.37543,-18.51925 1.92378,-26.9875 -0.83687,-15.69508 5.53641,-37.42267 -10.877015,-47.21913 -8.51879,-5.0845 -20.45626,-3.69596 -27.15074,3.83249 -5.02629,5.65256 -7.874,13.82263 -11.00085,20.63247 -1.95183,4.25106 -3.98701,8.47037 -5.9862,12.7 -0.55747,1.17952 -1.64121,3.79704 -3.3356,3.48986 -1.38403,-0.25083 -2.18043,-2.11244 -2.71912,-3.22527 -1.65947,-3.4298 -3.20331,-6.9088 -4.90696,-10.31875 -6.47968,-12.96853 -12.05418,-32.1831 -30.36097,-30.03945 m 8.20209,8.60822 -2.64584,5.82083 -4.23333,-0.52917 -1.05833,-6.61458 c 2.81119,0 5.30807,0.24977 7.9375,1.32292 m 67.99791,-1.05834 c -0.96123,4.46696 -0.57203,6.13172 -5.29167,7.14375 l -2.64583,-6.08541 c 2.46909,-1.18322 5.24166,-1.66238 7.9375,-1.05834 m 8.20208,3.70417 c -1.26524,1.63063 -6.24787,7.20011 -7.74329,2.53841 -0.56224,-1.75339 0.5969,-4.45928 0.86413,-6.24258 2.65535,0.72311 4.70191,2.06693 6.87916,3.70417 m -85.46041,-3.43958 c 0.23865,1.59385 1.3761,4.39949 0.74374,5.92614 -1.84917,4.46643 -6.6521502,-0.35587 -7.8874902,-2.48656 2.23785,-1.60708 4.34975,-3.06467 7.1437502,-3.43958 m 11.1125,10.84791 -3.43958,-3.43958 2.64583,-5.82083 c 5.74516,2.47121 6.36138,6.53494 0.79375,9.26041 m 56.88541,-9.26041 2.64584,6.08541 -3.175,3.175 -5.29167,-3.43958 c 1.26788,-2.3786 3.41312,-4.59475 5.82083,-5.82083 m 18.52084,2.91041 c 1.640405,2.13916 3.063335,4.43019 3.439575,7.14375 l -6.085415,1.5875 c -1.89627,-4.39023 -1.17739,-5.65811 2.64584,-8.73125 M 3.9655348,240.9188 c 1.18771,1.18771 3.20807,2.60165 3.76158,4.23333 1.73329,5.10963 -5.35808,3.19881 -7.46574997,2.38125 0.82576997,-2.46618 1.72455997,-4.84055 3.70416997,-6.61458 m 25.1354202,3.96875 c 2.37516,5.40332 3.27051,6.39498 -2.38125,9.525 l -2.91042,-6.35 5.29167,-3.175 m 46.56666,9.26041 c -6.09415,-2.16349 -4.72387,-4.33308 -2.64583,-9.26041 5.77797,1.87245 5.14985,4.77335 2.64583,9.26041 M 6.0822048,250.4438 v 5.82083 h -6.34999997 c 0,-1.38298 -0.7202,-5.8457 0.53154,-6.70851 1.19221997,-0.82153 4.46881997,0.66675 5.81845997,0.88768 m 96.3083152,5.82083 c -1.60999,0 -4.483615,0.5543 -5.908925,-0.26696 -3.97193,-2.28891 2.95989,-9.06516 5.523965,-6.31376 1.08558,1.16496 0.38496,5.06042 0.38496,6.58072 M 14.838855,250.9891 c 3.5888,-1.36816 6.95642,9.22444 8.11688,11.62553 5.32659,11.02228 9.86526,28.66337 23.8723,31.01763 18.22397,3.06282 24.7732,-13.8131 30.95625,-27.57805 1.71476,-3.81767 3.57954,-7.57052 5.31944,-11.37708 0.63633,-1.39197 1.38139,-3.56473 3.15701,-3.78963 3.99177,-0.50614 2.63605,8.62489 2.63605,10.93338 v 26.45833 c 0,3.72877 0.34316,8.01741 -3.44065,10.14492 -4.10818,2.31008 -11.2985,0.96758 -15.87394,0.96758 h -37.83541 c -4.79399,0 -12.87807,1.56872 -16.56583,-2.20662 -2.66753,-2.73077 -1.955,-7.01517 -1.955,-10.49338 0,-8.36956 0.20902,-16.76902 -0.01,-25.13541 -0.0675,-2.58287 -1.56978,-9.35011 1.62269,-10.5672 m 23.52251,13.21303 c -5.02867,2.92417 -6.49631,2.68314 -8.46666,-3.175 5.10248,-3.29697 6.12748,-2.14604 8.46666,3.175 m 34.13125,-3.175 -2.91042,6.08542 -5.55625,-2.91042 2.91042,-6.08542 5.55625,2.91042 m -66.4104102,2.38125 v 6.61458 h -6.34998997 v -6.61458 H 6.0820048 m 96.3083152,0 v 6.61458 h -6.614575 c 0,-6.13727 0.47731,-6.61458 6.614575,-6.61458 m -60.854155,7.40833 2.64583,6.08542 c -1.13294,0.82391 -2.93925,2.95645 -4.42912,2.89613 -1.65788,-0.0672 -3.26681,-4.73313 -3.77296,-6.07113 l 5.55625,-2.91042 m 21.69583,9.525 -5.29166,-3.96875 v -0.26458 l 3.175,-5.29167 c 5.58853,2.89984 4.3471,4.45109 2.11666,9.525 m -57.1499902,-3.175 c 0,1.59465 0.56065,4.49977 -0.26697,5.90418 -0.63976,1.08558 -5.16492997,1.0922 -5.81606997,-0.0198 -0.82391,-1.40706 -0.26696,-4.28943 -0.26696,-5.88434 H 6.0820048 m 96.3083152,0 c 0,1.60999 0.55431,4.48363 -0.26696,5.90894 -0.67786,1.17634 -5.402785,1.17634 -6.080645,0 -0.82127,-1.42531 -0.26697,-4.29895 -0.26697,-5.90894 h 6.614575 m -53.710405,2.64584 -1.5875,6.08541 c -1.96665,-0.39661 -5.15832,-1.69254 -5.97244,-3.71766 -0.62468,-1.55284 2.74902,-4.04759 4.12036,-4.0169 1.16364,0.0259 2.40876,1.15649 3.43958,1.64915 m 8.46667,-1.69466 c 5.74622,-0.24024 4.24497,7.43373 -1.00304,7.48268 -2.84453,0.0265 -3.10647,-7.31097 1.00304,-7.48268 m -3.175,8.04466 -5.55625,0.26458 1.5875,-6.35 c 3.20939,0.10689 3.1787,3.56711 3.96875,6.08542 M 6.0820048,290.6605 c 0,5.35914 -0.54213,6.31031 -6.08541997,7.14375 -0.70353,-6.14204 -0.0214,-7.14375 6.08541997,-7.14375 m 96.3083152,0 -0.26458,7.14375 -6.349995,-1.32291 c 0,-5.80126 1.03902,-5.82084 6.614575,-5.82084 M 3.9653348,306.00629 h -0.26458 l -3.17499997,-6.61458 c 1.53616997,-0.48366 3.85867997,-1.62031 5.48109997,-1.30201 5.2014502,1.02076 -0.59663,6.71459 -2.04152,7.91659 m 97.8958252,-6.61458 c -0.55669,1.66211 -1.35361,5.1316 -3.066515,5.97482 -0.89429,0.44027 -1.86055,-0.5117 -2.4892,-1.03134 -2.85882,-2.36273 -2.10847,-3.40916 -1.05886,-6.53098 l 6.614575,1.5875 m -92.3395752,3.43958 3.7041702,2.64584 -1.5875,6.08541 c -2.6897602,-0.65484 -5.4570302,-2.35188 -6.8791702,-4.7625 l 4.7625,-3.96875 m 88.1062502,4.23334 v 0.26458 c -1.96586,1.90474 -4.15105,3.63432 -6.87917,4.23333 -0.67786,-2.0566 -2.88608,-9.03419 2.11667,-8.18012 1.68327,0.28734 3.53271,2.57784 4.7625,3.68221 m -77.7875,-0.52917 c 0,5.65335 -1.05463,7.53057 -7.14375,5.55625 1.18851,-5.3168 1.91876,-5.80019 7.14375,-5.55625 m 67.99791,-0.52917 1.5875,6.35 c -1.74016,0.17436 -5.40252,1.09511 -6.96727,0.25242 -1.19433,-0.64294 -1.15649,-5.40438 0,-6.07087 1.36551,-0.78687 3.81635,-0.22489 5.37977,-0.53155 m -54.76874,0.26459 c 0.33469,1.4941 0.79851,4.51908 -0.002,5.90894 -0.65829,1.14273 -5.15409,1.14458 -5.96265,0.17409 -1.01336,-1.21602 -0.38497,-4.57147 -0.38497,-6.08303 h 6.35 m 14.02291,0.26458 v 6.08542 l -6.61458,0.26458 v -6.35 h 6.61458 m 13.75834,-0.26458 v 6.35 l -6.61459,0.26458 0.26459,-6.61458 h 6.35 m 14.02291,0.26458 c 0,6.06055 -0.70194,6.34894 -6.61458,6.35 v -6.61458 z"
       id="path704" />
    <path
       style="fill:#141c21;stroke:none;stroke-width:0.264583"
       d="m 48.679815,236.1563 c 0,7.09242 -0.7829,12.10998 -4.49792,18.25625 2.96069,-0.99986 5.79041,-2.92603 6.61459,-6.08542 2.31431,2.5691 3.8092,4.71249 7.14375,6.08542 -3.18717,-6.49896 -4.23334,-10.98921 -4.23334,-18.25625 4.76356,-2.7e-4 4.94904,-1.97326 8.55107,-4.03252 2.36988,-1.35519 5.02232,-1.07579 7.30541,-3.00646 5.46444,-4.62068 5.29723,-13.84644 0.008,-18.51474 -6.41244,-5.65891 -20.02631,-3.06256 -28.03498,-3.02022 -9.27947,0.049 -15.94591,9.34482 -11.5025,17.99061 2.41459,4.6982 5.82745,4.29312 9.79726,6.34735 1.15173,0.59584 1.57057,2.17514 2.55746,3.01069 1.76186,1.49172 4.1402,1.22529 6.29153,1.22529 m -9.52474,-21.25954 c 4.82653,-0.58208 5.66897,7.20381 0.79322,7.87586 -4.94982,0.68236 -5.70547,-7.28345 -0.79322,-7.87586 m 23.28307,0.0402 c 4.9321,-0.34396 5.48137,7.41468 0.52917,7.87374 -4.94533,0.45852 -5.47106,-7.52925 -0.52917,-7.87374"
       id="path702" />
    <path
       style="fill:#787878;fill-opacity:1;stroke:none;stroke-width:1;stroke-opacity:0.77735102;stroke-dasharray:none"
       d="M -73.876425,389.52922 H 176.12358 v -250 H -73.876425 m 66.7291598,48.29935 c 10.56508,-1.02077 21.6619702,-0.091 32.2791702,-0.091 h 63.76458 c 11.948575,0 26.841435,-2.65165 35.250165,7.9375 7.34774,9.25327 4.43732,24.64382 4.43732,35.71875 v 59.79583 c 0,10.04041 0.76571,20.42319 -0.0659,30.42708 -0.87418,10.51878 -7.06067,18.60471 -17.92578,20.14405 -10.646835,1.50866 -22.318125,0.22887 -33.072915,0.22887 h -65.35208 c -11.66309017,0 -26.61787,2.70668 -34.44187,-8.20209 -6.83498,-9.53002 -3.92271,-25.14414 -3.92271,-36.24791 v -61.38333 c 0,-9.99728 -1.1512,-20.78038 0.12832,-30.69167 1.26154,-9.77318 9.38001,-16.71425 18.9216798,-17.63606"
       id="path676"
       sodipodi:nodetypes="cccccsscssccsscsscc" />
    <rect
       style="fill:#787878;fill-opacity:1;stroke:#000000;stroke-width:4.99999;stroke-opacity:0"
       id="rect1380"
       width="4.3195543"
       height="4.1469593"
       x="-53.775692"
       y="247.61998"
       rx="10"
       ry="4.1469593" />
    <path
       id="path1806"
       style="fill:#ffffff;fill-opacity:1;stroke:none;stroke-width:1;stroke-linecap:square;stroke-miterlimit:0;stroke-opacity:0.777351"
       inkscape:transform-center-x="-1.2645269e-06"
       inkscape:transform-center-y="4.3944493e-06"
       d="m -15.123952,268.82847 -29.752473,10.10626 9.13e-4,-29.40551 29.752474,9.29925 z"
       sodipodi:nodetypes="ccccc" />
    <path
       id="path1806-5"
       style="fill:#787878;fill-opacity:1;stroke:none;stroke-width:1;stroke-linecap:square;stroke-miterlimit:0;stroke-opacity:0.777351"
       inkscape:transform-center-x="-1.2645269e-06"
       inkscape:transform-center-y="4.3944493e-06"
       d="m 141.14643,269.18656 -29.75247,10.10626 9.2e-4,-29.40551 29.75247,9.29925 z"
       sodipodi:nodetypes="ccccc" />
  </g>
</svg>
